<?xml version="1.0" standalone="no"?><!DOCTYPE svg PUBLIC "-//W3C//DTD SVG 1.1//EN" "http://www.w3.org/Graphics/SVG/1.1/DTD/svg11.dtd"><svg t="1511419792309" class="icon" style="" viewBox="0 0 2027 1024" version="1.1" xmlns="http://www.w3.org/2000/svg" p-id="2960" xmlns:xlink="http://www.w3.org/1999/xlink" width="63.34375" height="32"><defs><style type="text/css"></style></defs><path d="M1034.324 331.025c-12.386-12.388-32.454-12.388-44.842 0l-136.135 136.133-136.133-136.133c-12.386-12.388-32.455-12.388-44.842 0-12.386 12.386-12.386 32.455 0 44.842l136.133 136.134-136.134 136.133c-12.386 12.39-12.386 32.456 0 44.841 6.195 6.196 14.307 9.291 22.42 9.291 8.114 0 16.228-3.095 22.42-9.291l136.134-136.134 136.134 136.134c6.194 6.196 14.308 9.291 22.422 9.291s16.226-3.095 22.42-9.291c12.387-12.385 12.387-32.453 0-44.841l-136.135-136.133 136.134-136.133c12.386-12.387 12.386-32.455 0-44.842l0.003-0.001zM853.349 0c-282.23 0-512.02 229.648-512.02 512.019s229.753 511.981 512.02 511.981c282.337 0 512.018-229.608 512.018-511.981s-229.648-512.019-512.018-512.019zM853.349 959.904c-247.039 0-447.957-200.951-447.957-447.923 0-247.11 200.918-447.989 447.957-447.989 247.038 0 447.994 200.879 447.994 447.989 0.032 246.972-200.956 447.923-447.994 447.923zM2027.549 720.602z" fill="#29b4ce" p-id="2961"></path></svg>