<?xml version="1.0" standalone="no"?><!DOCTYPE svg PUBLIC "-//W3C//DTD SVG 1.1//EN" "http://www.w3.org/Graphics/SVG/1.1/DTD/svg11.dtd"><svg t="1512034242357" class="icon" style="" viewBox="0 0 1024 1024" version="1.1" xmlns="http://www.w3.org/2000/svg" p-id="1695" xmlns:xlink="http://www.w3.org/1999/xlink" width="1000" height="1000"><defs><style type="text/css"></style></defs><path d="M34.782 379.201c0-19.090 3.236-32.689 9.358-40.935 6.23-8.113 19.964-12.090 41.466-12.090h132.375v529.952h-56.842c-15.219 0-30.144-0.132-44.965-0.478-14.927-0.238-24.974-0.478-30.489-0.478-18.665 0.716-31.789-2.492-39.396-9.65-7.556-7.026-11.453-20.572-11.453-40.325v-152.551c0-7.769 1.326-13.653 3.658-17.392 2.333-3.844 7.371-6.549 14.979-8.006 2.836 0 6.497-1.088 11.453-3.182 4.746-2.226 9.597-5.647 14.397-10.234 4.799-4.561 8.989-10.473 12.409-18.002 3.42-7.343 5.223-16.305 5.223-27.015 0-16.252-4.268-28.873-12.912-38.098-8.617-9.147-17.842-14.557-27.547-15.827-7.503-1.379-13.071-3.791-16.491-6.918-3.474-3.289-5.223-8.722-5.223-16.491v-112.279M120.681 278.509v-27.627c0-14.025 5.461-27.201 16.066-39.184 10.605-11.957 22.244-18.055 34.65-18.055h142.9v84.865h-193.618M964.27 508.448c-5.381 1.511-9.465 4.454-11.93 9.147-2.201 4.454-3.658 9.65-3.658 15.166 0 5.781 1.404 11.215 3.658 16.438 2.465 5.409 6.549 9.147 11.93 11.189 5.515 2.226 9.968 6.444 13.018 12.7 3.182 6.444 4.905 13.071 5.143 20.228 0.371 7.052-0.583 13.84-2.572 20.097-2.095 6.336-5.143 10.949-9.227 13.84-13.787 8.484-20.626 18.002-20.626 28.58 0 10.605 6.788 21.316 20.626 31.734 2.811 2.226 5.277 6.124 7.742 11.612 2.333 5.781 3.527 11.374 3.527 17.153 0 5.647-1.246 10.473-4.082 14.688-2.811 4.321-7.61 6.444-14.503 6.444h-55.861c-3.95 0-6.31-0.371-6.549-1.219-0.345-0.716 0.132-1.857 1.379-3.552 1.379-1.857 3.075-3.791 5.17-6.019 2.095-2.095 3.765-4.561 5.277-7.396 3.42-9.863 3.42-18.347 0-25.398-3.552-7.158-9.227-13.044-17.683-18.002-5.515-2.811-9.597-7.265-11.825-13.415-2.439-5.886-3.42-12.090-3.049-18.48 0.238-6.415 1.379-11.957 3.552-16.914 2.095-5.037 5.277-8.59 9.227-10.711 5.62-2.095 9.705-6.019 12.409-11.612 2.811-5.54 4.189-11.612 4.189-18.002 0-6.364-1.194-12.196-3.049-17.498-2.095-5.302-5.17-9.013-9.491-11.083-5.381-2.943-9.705-7.026-12.858-12.804-3.129-5.409-4.64-11.745-4.64-18.849 0-7.158 1.274-13.945 4.082-20.705 2.811-6.735 7.132-12.196 13.362-16.411 4.321-2.836 7.742-6.681 10.446-11.612 2.943-5.065 4.189-10.234 4.799-15.907 0.345-5.7-0.982-11.135-3.182-16.411-2.465-5.356-6.788-9.705-13.018-13.257-6.759-3.474-11.93-8.722-14.979-15.35-3.049-6.735-4.693-13.707-4.693-20.679 0-7.185 1.644-13.787 4.693-20.228 3.049-6.257 7.371-11.321 12.885-14.927 11.692-6.257 18.293-14.979 19.196-25.875 1.060-10.949 0.238-21.131-2.598-30.144-2.201-7.158-6.23-13.494-12.274-19.143-6.31-5.728-14.265-8.484-23.861-8.484h-496.812v-83.726h582.763c4.799 0 8.75 1.804 12.169 5.302 3.552 3.552 5.886 7.769 6.894 12.753 1.088 4.931 0.716 10.048-1.088 15.35-1.617 5.249-4.905 9.81-9.81 13.362-4.215 3.552-7.875 8.006-10.924 13.733-3.182 5.647-4.665 11.427-5.277 17.498-0.238 6.073 0.716 11.983 2.704 18.055 1.963 5.966 5.753 10.42 11.321 13.23 7.742 4.215 13.387 10.074 17.101 17.392 3.819 7.423 5.806 14.819 5.806 22.163 0 7.53-1.987 14.369-5.753 20.705-3.765 6.415-8.989 11.055-15.961 13.787-7.61 2.943-13.23 6.918-16.596 12.196-3.527 5.356-5.277 11.189-5.753 17.472-0.371 6.364 0.954 12.566 3.95 18.532 3.182 6.073 8.219 11.321 15.111 15.535 6.894 4.082 12.063 9.729 15.111 16.89 3.049 6.998 4.321 14.025 4.082 21.184-0.371 7.052-2.119 13.548-5.17 19.619-3.182 5.911-7.663 9.333-13.973 10.048v0 0M829.775 492.565c-8.219 2.119-14.636 6.257-19.196 12.090-4.427 6.15-6.759 12.221-7.265 18.718-0.212 6.336 1.511 12.7 5.17 19.143 3.95 6.257 9.465 10.843 17.206 13.682 6.759 2.943 12.036 7.158 15.457 12.673 3.552 5.781 5.409 11.745 5.753 18.134 0.371 6.364-0.954 12.462-3.658 18.002-2.677 5.647-6.894 9.968-12.409 12.673-17.206 8.617-26.247 18.849-26.778 30.834-0.849 11.957 5.753 21.475 19.539 28.686 6.23 2.836 11.267 7.158 14.979 13.178 3.844 6.044 5.859 12.355 6.284 19.143 0.371 6.575-0.954 12.7-3.765 17.897-2.704 5.515-7.265 9.013-13.362 11.294-8.351 2.119-14.636 5.911-19.3 11.612-4.321 5.54-6.655 11.612-7.026 17.897-0.478 6.549 1.274 12.804 5.143 19.115 3.791 6.444 9.836 11.745 18.055 16.014 5.647 2.836 9.465 7.29 11.93 13.178 2.465 6.15 3.289 11.877 2.704 17.524-0.849 5.647-2.704 10.817-5.886 15.27-3.049 4.693-7.371 6.918-12.991 6.918h-541.298v-530.058h547.53c5.515 0 9.942 2.173 13.124 6.918 3.049 4.561 4.665 9.625 5.143 15.35 0.371 5.7-0.954 11.294-3.765 16.914-2.704 5.594-7.265 9.571-13.362 11.612-6.23 2.148-11.267 5.7-15.111 10.657-3.844 4.852-5.991 10.446-6.788 16.357-0.583 6.073 0.849 11.798 4.215 17.498 3.527 5.728 9.333 9.942 17.683 12.7 6.097 2.836 11.267 7.052 14.979 12.779 3.711 5.7 5.991 11.427 6.23 17.392 0.371 6.177-1.088 11.718-4.082 17.153-3.049 5.17-8.085 8.96-15.086 11.055v0 0M580.269 563.698c-3.289 0-6.998-0.345-10.896-1.088-3.739-0.821-4.427-2.943-2.598-6.415 0.849-1.274 4.082-6.336 9.968-14.819 5.859-8.617 12.274-17.524 19.646-27.015 7.265-9.625 13.787-18.61 20.281-27.015 6.097-8.484 9.942-13.787 11.267-16.014 3.527-5.54 1.379-12.221-6.23-20.043-1.274-1.457-4.082-3.605-8.325-6.497-3.977-2.783-7.822-4.878-11.215-6.257-5.647-2.042-9.597-2.465-12.063-1.035-2.226 1.379-5.277 4.508-8.697 9.518-1.379 2.042-4.799 7.212-10.42 15.297-5.461 8.298-11.321 16.835-17.578 26.034-6.177 9.28-11.93 17.524-17.073 24.79-5.277 7.53-8.167 11.877-8.75 13.362-1.326 2.731-4.030 3.924-7.847 3.207-3.791-0.716-6.31-2.465-7.61-5.302-0.849-1.379-3.844-5.54-9.411-12.327-5.594-6.575-11.534-14.078-17.63-22.695-6.124-8.617-12.169-16.305-18.055-23.835-5.939-7.451-9.836-12.513-11.983-15.457-6.23-11.983-12.753-15.827-19.593-11.558-4.852 2.757-9.227 5.781-13.071 8.908-3.791 3.314-7.371 5.966-10.79 8.113-6.894 4.825-7.926 11.267-3.129 19.009 11.692 14.103 22.138 27.149 31.126 39.237 7.53 9.888 14.741 19.275 21.741 28.713 6.841 9.042 10.976 14.343 12.303 15.907 1.433 2.704 0 4.189-4.135 4.189h-12.303c-3.42 0-8.51 0.132-14.979 0.505-6.655 0.345-12.7 0.238-18.267-0.505-5.461 0-10.020 1.274-13.494 4.215-3.366 2.731-4.427 6.257-2.996 10.473 0.662 2.97 1.007 7.158 1.007 12.7v12.938c0 3.445 0.954 5.435 3.129 5.781 2.095 0.318 4.427 0.425 7.238 0.425h60.077c8.167 0 12.274 1.75 12.274 5.302v20.097c0 3.685-0.583 5.409-2.015 5.409h-69.357c-4.082-0.716-6.788 0.371-8.219 3.075-1.326 2.943-2.333 6.15-3.129 9.625-0.716 3.685-0.716 6.918 0 9.996 0.796 3.314 0.954 6.019 0.954 8.006 0 9.253 4.508 13.84 13.494 13.84h62.172c3.58 0 5.568 0.478 6.177 1.511 0.662 1.088 1.060 3.42 1.060 6.918 0.741 3.552 0.982 9.863 0.478 19.009-0.291 9.28-0.53 15.219-0.53 18.188 0 7.742 4.508 11.612 13.441 11.612h33.193c5.515 0 8.325-1.75 8.325-5.409v-42.313c0-7.158 3.182-10.711 9.253-10.711h9.333c4.799 0 10.314-0.132 16.066-0.609 5.991-0.238 11.586-0.478 16.967-0.478h13.494c9.597 0 14.636-3.552 14.636-10.473v-23.411c0-6.444-3.42-9.625-10.314-9.625h-60.182c-6.788 1.485-10.446 0-10.446-4.215 0-1.987-0.106-4.693-0.478-7.901-0.345-3.182-0.425-6.019-0.425-8.96 0-2.704 1.088-4.931 3.552-6.257 2.519-1.511 5.090-2.226 7.794-2.226h61.136c6.759 0 10.314-2.333 10.314-7.396v-25.452c0-2.836-1.194-5.54-3.658-8.378-2.465-2.943-5.381-4.215-8.75-4.215h-35.261M580.269 563.698v0z" p-id="1696" fill="#ffce20"></path></svg>