<?xml version="1.0" standalone="no"?><!DOCTYPE svg PUBLIC "-//W3C//DTD SVG 1.1//EN" "http://www.w3.org/Graphics/SVG/1.1/DTD/svg11.dtd"><svg t="1511257068712" class="icon" style="" viewBox="0 0 1024 1024" version="1.1" xmlns="http://www.w3.org/2000/svg" p-id="2657" xmlns:xlink="http://www.w3.org/1999/xlink" width="32" height="32"><defs><style type="text/css"></style></defs><path d="M511.693015 970.789248c-288.770661 0-409.927451-103.249325-409.927451-315.580694 0-175.902468 137.324673-359.377236 303.915259-417.295093h212.126712c166.590587 57.917857 303.915259 241.392625 303.915259 417.295093-0.102328 212.331368-121.259119 315.580694-410.029779 315.580694zM625.277506 621.951834c19.135405-0.204657 34.586989-15.758569 34.586989-34.893975 0-19.237734-15.553912-34.791646-34.586989-34.893974v-0.102328h-70.299591c0.102328-0.716299-0.102328-1.432597 0-2.251224l82.374338-84.216249c13.405016-15.144599 6.651344-27.62866-6.958329-41.340661-13.609673-13.81433-36.019586-16.679524-47.07105-4.707105L512.511642 495.064655 435.970021 418.625362c-9.618867-9.721195-28.549615-6.549016-42.05696 6.958329-13.507345 13.609673-16.679524 32.438093-7.060658 42.056961l78.281203 78.281203c-1.432597 1.841911-2.455881 3.990806-2.967522 6.139702h-63.648246v0.102328h-0.204657c-19.237734 0-34.893974 15.553912-34.893974 34.893974 0 19.237734 15.553912 34.893974 34.893974 34.893975h0.204657v0.102328h69.68562v34.791646h-69.68562v0.102328h-0.204657c-19.237734 0-34.893974 15.656241-34.893974 34.893975s15.553912 34.893974 34.893974 34.893974h69.890277v35.098631h0.716298c-0.61397 2.660538-0.818627 5.525732-0.818627 8.493254 0 24.149495 19.544719 43.591886 43.591886 43.591886s43.591886-19.544719 43.591886-43.591886c0-2.865194-0.306985-5.730389-0.818627-8.493254h0.409313v-35.098631H625.277506c19.135405-0.102328 34.586989-15.656241 34.586989-34.791646 0-19.237734-15.553912-34.791646-34.586989-34.893974v-0.306985h-70.401919v-34.791646H625.277506z m52.08514-523.307285l-7.367643 9.209553c-0.204657 0.102328-0.306985 0.306985-0.409313 0.511642l-62.010992 77.462576H398.313181l-61.908664-77.360248c-0.511642-0.511642-0.818627-1.023284-1.227941-1.432597l-6.651344-8.390926 1.227941-2.353553c-0.61397-2.148896-1.330269-4.195463-1.330269-6.549015 0-11.153792 6.958329-20.465674 16.781853-24.354152l0.818627-1.637254s85.751174-17.088838 156.971719-17.395823c74.597382-0.306985 156.97172 17.395823 156.97172 17.395823l0.818627 1.637254C670.506645 69.276307 677.464975 78.588188 677.464975 89.639652c0 2.251224-0.716299 4.297792-1.330269 6.446688l1.22794 2.558209z" fill="#1296db" p-id="2658"></path></svg>